<svg xmlns="http://www.w3.org/2000/svg" xmlns:xlink="http://www.w3.org/1999/xlink" width="500" zoomAndPan="magnify" viewBox="0 0 375 374.999991" height="500" preserveAspectRatio="xMidYMid meet" version="1.0"><defs><g/><clipPath id="eaafa7a1cc"><path d="M 89.9375 82.28125 L 284.9375 82.28125 L 284.9375 195.53125 L 89.9375 195.53125 Z M 89.9375 82.28125 " clip-rule="nonzero"/></clipPath><clipPath id="33ac6d9ad1"><path d="M 132 133.828125 L 242.878906 133.828125 L 242.878906 241.078125 L 132 241.078125 Z M 132 133.828125 " clip-rule="nonzero"/></clipPath></defs><g clip-path="url(#eaafa7a1cc)"><path fill="#a37b40" d="M 283.058594 195.53125 C 284.917969 181.835938 283.96875 167.765625 280.125 154.566406 C 278.226562 147.949219 275.621094 141.574219 272.398438 135.492188 C 272.027344 134.707031 271.570312 134.003906 271.160156 133.257812 L 269.878906 131.023438 C 268.96875 129.574219 268.019531 128.128906 267.109375 126.679688 C 266.117188 125.273438 265.125 123.867188 264.09375 122.5 L 262.480469 120.472656 C 261.945312 119.8125 261.40625 119.109375 260.828125 118.488281 C 251.902344 108.101562 240.871094 99.496094 228.515625 93.660156 C 216.117188 87.910156 202.523438 84.722656 188.84375 84.558594 C 175.207031 84.308594 161.449219 86.917969 148.925781 92.417969 C 136.363281 97.796875 125 105.949219 115.746094 116.046875 C 106.488281 126.183594 99.421875 138.265625 95.164062 151.339844 C 92.976562 157.878906 91.570312 164.621094 90.867188 171.492188 C 90.164062 178.359375 90.125 185.269531 90.828125 192.179688 C 90.371094 188.746094 90.082031 185.3125 90 181.835938 C 89.960938 180.96875 90 180.097656 90 179.230469 L 90.042969 176.621094 C 90.042969 175.753906 90.082031 174.882812 90.164062 174.015625 L 90.332031 171.410156 C 90.910156 164.5 92.191406 157.628906 94.214844 151.007812 C 98.347656 137.726562 105.332031 125.355469 114.585938 114.96875 C 123.84375 104.585938 135.414062 96.226562 148.183594 90.597656 C 160.910156 84.972656 174.960938 82.28125 188.886719 82.488281 C 202.8125 82.738281 216.738281 86.003906 229.300781 92.003906 C 241.859375 98.046875 253.101562 106.859375 261.984375 117.578125 C 262.5625 118.238281 263.101562 118.941406 263.636719 119.605469 L 265.25 121.671875 C 266.28125 123.078125 267.273438 124.527344 268.265625 125.933594 C 269.175781 127.425781 270.125 128.871094 271.035156 130.363281 L 272.316406 132.636719 C 272.730469 133.382812 273.183594 134.128906 273.554688 134.914062 C 276.738281 141.078125 279.300781 147.617188 281.117188 154.320312 C 282.894531 161.023438 283.96875 167.933594 284.300781 174.84375 C 284.421875 178.320312 284.507812 181.753906 284.257812 185.230469 C 284.050781 188.703125 283.636719 192.140625 283.058594 195.53125 Z M 283.058594 195.53125 " fill-opacity="1" fill-rule="nonzero"/></g><g clip-path="url(#33ac6d9ad1)"><path fill="#a37b40" d="M 211.734375 133.828125 L 211.734375 134.9375 C 212.574219 135.128906 213.527344 135.316406 214.558594 135.585938 C 215.9375 135.929688 217.273438 136.390625 218.457031 137.039062 C 219.71875 137.691406 220.75 138.492188 221.628906 139.488281 C 222.582031 140.558594 223.078125 141.933594 223.078125 143.542969 C 223.078125 144.460938 222.925781 145.492188 222.621094 146.640625 C 222.351562 147.710938 222.007812 148.859375 221.664062 150.003906 C 221.320312 151.191406 220.902344 152.300781 220.480469 153.371094 C 220.0625 154.40625 219.679688 155.359375 219.335938 156.085938 L 193.320312 220.039062 L 185.105469 201.144531 C 185.757812 199.230469 186.671875 197.394531 187.820312 195.714844 C 188.890625 194.144531 190.148438 192.730469 191.488281 191.390625 C 191.601562 192.15625 192.019531 192.921875 192.59375 193.457031 C 193.894531 194.679688 195.878906 194.910156 197.5625 195.101562 C 198.59375 195.214844 199.625 195.253906 200.617188 195.292969 C 200.769531 195.292969 200.808594 195.0625 200.65625 194.988281 C 199.394531 194.414062 198.59375 193.152344 197.714844 192.117188 C 197.253906 191.582031 196.796875 191.046875 196.222656 190.664062 C 195.652344 190.242188 195 189.976562 194.3125 189.785156 C 193.96875 189.707031 193.625 189.632812 193.28125 189.632812 C 195.269531 187.71875 197.292969 185.84375 198.898438 183.625 C 200.617188 181.292969 201.839844 178.539062 201.992188 175.59375 C 201.992188 175.402344 201.953125 175.25 201.839844 175.136719 C 202.679688 174.675781 203.40625 173.988281 203.941406 173.144531 C 204.78125 171.808594 205.085938 170.125 204.742188 168.480469 C 204.589844 167.636719 204.246094 166.835938 203.789062 166.148438 C 203.597656 165.878906 203.367188 165.496094 203.023438 165.496094 C 202.71875 165.457031 202.488281 165.726562 202.335938 165.957031 C 201.648438 164.921875 200.847656 164.042969 199.96875 163.238281 C 199.890625 163.164062 199.738281 163.238281 199.738281 163.355469 C 199.738281 164.273438 199.585938 165.191406 199.394531 166.070312 C 198.554688 166.03125 197.789062 166.53125 197.332031 167.179688 C 196.835938 167.90625 196.71875 168.785156 196.757812 169.589844 C 196.835938 171.121094 197.484375 172.574219 198.515625 173.796875 C 198.820312 174.179688 199.164062 174.523438 199.546875 174.828125 C 199.738281 174.980469 199.96875 175.136719 200.160156 175.289062 C 200.3125 175.402344 200.691406 175.632812 200.730469 175.824219 C 200.730469 175.863281 200.730469 175.863281 200.730469 175.898438 C 200.503906 177.925781 199.816406 179.839844 198.746094 181.597656 C 198.59375 181.828125 198.476562 182.019531 198.324219 182.25 C 198.25 182.363281 198.171875 182.441406 198.09375 182.554688 C 198.058594 182.632812 197.867188 182.785156 197.867188 182.863281 C 197.90625 182.136719 197.714844 181.332031 197.332031 180.679688 C 196.261719 178.921875 194.046875 178.082031 192.175781 177.660156 C 191.027344 177.390625 189.882812 177.199219 188.773438 177.164062 C 188.582031 177.164062 188.582031 177.429688 188.699219 177.46875 C 190.074219 178.15625 190.800781 179.609375 191.488281 180.835938 C 191.832031 181.484375 192.210938 182.097656 192.707031 182.671875 C 193.207031 183.207031 193.742188 183.664062 194.351562 184.046875 C 194.925781 184.390625 195.574219 184.660156 196.222656 184.8125 C 194.925781 186.226562 193.550781 187.566406 192.210938 188.828125 C 190.988281 190.015625 189.765625 191.199219 188.660156 192.460938 C 188.546875 187.910156 188.355469 183.359375 187.285156 178.960938 C 187.015625 177.851562 186.671875 176.742188 186.292969 175.632812 C 186.445312 172.957031 187.894531 170.582031 189.613281 168.632812 C 190.074219 168.136719 190.53125 167.636719 190.988281 167.140625 C 191.179688 166.949219 191.371094 166.71875 191.5625 166.492188 C 192.175781 166.988281 193.015625 166.757812 193.472656 166.183594 C 193.929688 165.613281 193.894531 164.808594 193.511719 164.234375 C 192.554688 162.78125 190.453125 163.777344 190.53125 165.34375 C 190.53125 165.800781 190.148438 166.070312 189.84375 166.375 C 189.5 166.757812 189.15625 167.101562 188.8125 167.484375 C 188.199219 168.175781 187.628906 168.902344 187.09375 169.703125 C 186.328125 170.8125 185.71875 172.039062 185.335938 173.335938 C 184.226562 171.042969 182.816406 168.902344 181.019531 167.066406 C 181.25 167.027344 181.476562 166.988281 181.707031 166.949219 C 182.472656 166.757812 183.195312 166.375 183.730469 165.917969 C 184.457031 165.304688 184.914062 164.503906 185.335938 163.621094 C 185.757812 162.742188 186.101562 161.75 186.40625 160.832031 C 186.824219 159.722656 187.207031 158.574219 187.589844 157.386719 C 187.628906 157.195312 187.398438 157.121094 187.285156 157.234375 C 186.214844 158.496094 184.535156 158.996094 183.082031 159.722656 C 182.316406 160.105469 181.554688 160.5625 180.941406 161.210938 C 180.332031 161.863281 179.835938 162.667969 179.492188 163.546875 C 179.300781 164.121094 179.148438 164.730469 179.148438 165.34375 C 177.65625 164.121094 176.054688 163.125 174.296875 162.320312 C 175.058594 161.976562 175.746094 161.519531 176.359375 160.945312 C 177.695312 159.683594 178.574219 158.039062 179.148438 156.316406 C 179.339844 155.78125 179.453125 155.207031 179.644531 154.671875 C 179.835938 154.097656 179.988281 153.488281 180.027344 152.875 C 180.0625 152.453125 180.101562 152.222656 180.292969 151.878906 C 180.445312 151.652344 180.523438 151.34375 180.597656 151.078125 C 180.789062 150.503906 180.941406 149.96875 181.058594 149.355469 C 181.25 148.167969 181.25 146.945312 180.980469 145.761719 C 180.636719 144.269531 179.835938 142.816406 178.613281 141.742188 C 178.421875 141.589844 178.078125 141.554688 177.964844 141.78125 L 177.582031 142.699219 C 177.121094 141.667969 176.472656 140.671875 175.746094 139.753906 C 174.523438 138.1875 173.074219 136.773438 171.621094 135.355469 C 171.429688 135.164062 171.125 135.242188 170.972656 135.433594 C 169.636719 137.5 168.222656 139.640625 168.144531 142.164062 C 167.917969 141.898438 167.648438 141.667969 167.382812 141.4375 C 166.007812 140.253906 164.441406 139.488281 162.71875 139.066406 C 162.835938 138.914062 162.949219 138.761719 163.0625 138.644531 C 163.941406 137.613281 165.089844 136.773438 166.425781 136.199219 C 167.726562 135.664062 169.0625 135.28125 170.515625 135.050781 C 171.546875 134.898438 172.5 134.78125 173.417969 134.707031 L 173.417969 133.828125 L 132.007812 133.828125 L 132.007812 134.859375 C 134.261719 135.164062 136.246094 135.625 137.851562 136.234375 C 139.683594 136.925781 141.289062 137.957031 142.589844 139.21875 C 143.847656 140.480469 144.996094 141.972656 145.949219 143.734375 C 146.867188 145.414062 147.820312 147.40625 148.777344 149.625 L 150.800781 154.289062 C 150.839844 154.40625 150.878906 154.519531 150.878906 154.671875 C 150.304688 154.519531 149.617188 154.632812 149.042969 154.785156 C 148.011719 155.054688 146.980469 155.324219 145.949219 155.628906 C 145.644531 155.703125 145.644531 156.203125 145.910156 156.316406 C 146.753906 156.660156 146.90625 157.730469 146.941406 158.535156 C 146.980469 159.375 146.941406 160.21875 147.25 160.984375 C 146.332031 161.210938 145.414062 161.367188 144.5 161.210938 C 144.191406 161.175781 143.964844 161.558594 144.117188 161.824219 C 145.1875 163.46875 146.371094 165.039062 147.632812 166.453125 C 148.851562 167.792969 150.265625 168.824219 151.984375 169.359375 C 152.484375 169.511719 152.980469 169.628906 153.476562 169.703125 C 151.566406 171.234375 150.609375 173.605469 149.578125 175.863281 C 149.503906 176.054688 149.542969 176.359375 149.769531 176.398438 C 152.292969 176.742188 154.964844 177.355469 157.679688 176.855469 L 157.066406 177.660156 C 156.914062 177.851562 157.066406 178.117188 157.257812 178.195312 C 158.480469 178.539062 159.777344 178.464844 161.078125 178.082031 C 161.078125 178.082031 181.820312 226.007812 181.820312 226.007812 C 181.59375 225.929688 181.402344 225.816406 181.171875 225.738281 C 179.757812 225.125 178.382812 224.4375 177.046875 223.671875 C 174.523438 222.21875 172.15625 220.421875 170.171875 218.28125 C 170.171875 218.28125 170.171875 218.242188 170.171875 218.242188 C 170.246094 216.445312 170.742188 214.683594 171.582031 213.117188 C 171.734375 212.847656 171.890625 212.621094 172.003906 212.351562 C 172.386719 212.429688 172.804688 212.3125 173.074219 212.007812 C 173.835938 211.242188 173.570312 209.597656 172.539062 209.214844 C 172.042969 209.023438 171.46875 209.101562 171.085938 209.445312 C 170.628906 209.867188 170.667969 210.476562 170.859375 211.050781 C 170.933594 211.28125 170.972656 211.433594 170.894531 211.664062 C 170.78125 211.929688 170.589844 212.199219 170.4375 212.464844 C 170.132812 213 169.902344 213.574219 169.671875 214.148438 C 169.328125 215.027344 169.101562 215.984375 168.984375 216.941406 C 167.34375 214.875 166.082031 212.503906 165.355469 209.941406 C 165.355469 209.941406 165.355469 209.902344 165.355469 209.902344 C 165.664062 210.019531 166.007812 210.054688 166.351562 209.980469 C 166.960938 209.867188 167.570312 209.519531 167.953125 208.984375 C 168.488281 208.296875 168.757812 207.492188 168.871094 206.691406 C 168.949219 205.886719 168.910156 205.085938 168.832031 204.359375 C 168.757812 203.476562 168.640625 202.636719 168.527344 201.757812 C 168.527344 201.605469 168.296875 201.640625 168.261719 201.757812 C 167.917969 202.902344 167 203.785156 166.273438 204.664062 C 165.890625 205.121094 165.507812 205.582031 165.28125 206.078125 C 165.050781 206.539062 164.898438 206.957031 164.785156 207.417969 C 164.25 204.585938 164.058594 201.71875 163.675781 198.851562 C 163.179688 195.023438 162.339844 191.160156 160.121094 187.949219 C 159.742188 187.375 158.976562 187.644531 158.863281 188.292969 C 158.210938 193.1875 159.589844 198.277344 162.605469 202.175781 C 162.644531 202.214844 162.683594 202.253906 162.71875 202.292969 C 162.988281 204.855469 163.292969 207.378906 163.941406 209.828125 C 165.128906 214.109375 167.609375 217.78125 170.820312 220.726562 C 166.234375 220.15625 162.605469 216.863281 159.511719 213.460938 C 159.742188 213.5 159.96875 213.5 160.199219 213.421875 C 160.773438 213.15625 161.15625 212.464844 161.308594 212.046875 C 161.804688 210.820312 161.421875 209.445312 161.078125 208.21875 C 160.886719 207.492188 160.65625 206.765625 160.390625 206.039062 C 160.351562 205.925781 160.160156 205.964844 160.160156 206.078125 C 160.121094 207.113281 159.472656 207.992188 158.976562 208.871094 C 158.710938 209.328125 158.480469 209.789062 158.367188 210.285156 C 158.25 210.785156 158.210938 211.320312 158.289062 211.855469 C 158.289062 211.96875 158.328125 212.082031 158.328125 212.160156 C 158.023438 211.816406 157.714844 211.472656 157.449219 211.128906 C 157.296875 210.9375 157.105469 210.898438 156.914062 210.898438 C 156.992188 210.554688 157.066406 210.171875 157.144531 209.828125 C 157.296875 209.136719 157.410156 208.488281 157.410156 207.800781 C 157.371094 206.269531 156.761719 204.777344 155.804688 203.667969 C 155.308594 203.058594 154.699219 202.558594 154.011719 202.175781 C 153.742188 202.023438 153.359375 201.792969 153.015625 201.949219 C 152.710938 202.0625 152.597656 202.367188 152.484375 202.675781 C 151.449219 202.023438 150.382812 201.488281 149.273438 200.914062 C 149.160156 200.839844 149.007812 200.953125 149.042969 201.105469 C 149.3125 202.023438 149.464844 203.019531 149.617188 203.976562 C 148.777344 204.242188 148.164062 205.046875 148.050781 205.925781 C 147.898438 206.921875 148.242188 207.914062 148.777344 208.792969 C 149.273438 209.597656 149.921875 210.285156 150.6875 210.859375 C 151.070312 211.128906 151.488281 211.394531 151.910156 211.585938 C 152.328125 211.777344 152.75 211.96875 153.246094 212.082031 C 154.238281 212.390625 155.347656 212.503906 156.300781 212.199219 C 156.378906 212.199219 156.457031 212.199219 156.53125 212.199219 C 157.832031 213.691406 159.167969 215.257812 160.65625 216.671875 C 160.238281 216.597656 159.816406 216.597656 159.433594 216.636719 C 158.59375 216.75 157.832031 217.09375 157.066406 217.589844 C 156.300781 218.050781 155.578125 218.625 154.890625 219.160156 C 154.046875 219.808594 153.171875 220.5 152.367188 221.1875 C 152.253906 221.300781 152.40625 221.492188 152.519531 221.453125 C 153.933594 221.035156 155.425781 221.453125 156.914062 221.570312 C 157.679688 221.644531 158.480469 221.644531 159.246094 221.492188 C 160.046875 221.300781 160.773438 220.957031 161.460938 220.460938 C 162.109375 219.964844 162.644531 219.351562 162.988281 218.664062 C 165.699219 220.765625 168.792969 222.257812 172.460938 222.179688 C 173.492188 222.984375 174.523438 223.710938 175.632812 224.398438 C 177.160156 225.316406 178.765625 226.160156 180.40625 226.847656 C 181.09375 227.152344 181.820312 227.460938 182.546875 227.6875 L 188.355469 241.078125 L 189.921875 241.078125 L 226.785156 150.65625 C 227.625 148.628906 228.503906 146.714844 229.421875 144.996094 C 230.335938 143.234375 231.484375 141.628906 232.78125 140.253906 C 234.082031 138.875 235.648438 137.691406 237.40625 136.734375 C 238.972656 135.890625 240.726562 135.28125 242.753906 134.898438 L 242.753906 133.828125 Z M 202.566406 166.148438 C 202.679688 166.03125 202.792969 165.839844 202.945312 165.839844 C 203.101562 165.839844 203.214844 165.957031 203.328125 166.070312 C 203.597656 166.339844 203.789062 166.71875 203.941406 167.027344 C 204.132812 167.371094 204.246094 167.753906 204.359375 168.136719 C 204.78125 169.628906 204.628906 171.308594 203.941406 172.609375 C 203.40625 173.644531 202.566406 174.445312 201.609375 174.980469 C 201.535156 174.980469 201.496094 174.945312 201.417969 174.945312 C 201.992188 174.410156 202.449219 173.796875 202.792969 173.070312 C 203.253906 172.113281 203.519531 171.042969 203.632812 169.972656 C 203.480469 171.042969 203.214844 172.113281 202.71875 173.03125 C 202.375 173.71875 201.914062 174.292969 201.34375 174.792969 C 202.566406 172.992188 203.0625 170.699219 202.71875 168.480469 C 203.023438 170.929688 202.296875 173.414062 200.847656 175.171875 C 200.808594 173.644531 201 172.152344 201.152344 170.621094 C 201.304688 169.359375 201.457031 168.019531 202.070312 166.910156 C 202.183594 166.644531 202.335938 166.375 202.566406 166.148438 Z M 197.636719 172.074219 C 197.332031 171.425781 197.101562 170.738281 197.027344 170.011719 C 196.949219 169.246094 196.949219 168.441406 197.292969 167.714844 C 197.636719 166.988281 198.402344 166.375 199.28125 166.375 C 199.164062 166.835938 199.050781 167.257812 198.972656 167.714844 C 198.820312 168.367188 198.667969 169.015625 198.628906 169.664062 C 198.59375 169.511719 198.59375 169.398438 198.554688 169.246094 C 198.476562 168.785156 198.4375 168.328125 198.515625 167.828125 C 198.402344 168.289062 198.4375 168.785156 198.476562 169.246094 C 198.515625 169.628906 198.59375 170.046875 198.59375 170.429688 C 198.59375 170.46875 198.59375 170.46875 198.59375 170.507812 C 198.363281 169.589844 198.132812 168.671875 197.941406 167.753906 C 198.132812 168.902344 198.363281 170.011719 198.628906 171.15625 C 198.667969 171.425781 198.707031 171.691406 198.746094 171.960938 C 198.9375 172.765625 199.28125 173.492188 199.660156 174.253906 C 199.660156 174.253906 199.660156 174.292969 199.699219 174.292969 C 199.777344 174.484375 199.890625 174.675781 199.96875 174.867188 C 198.9375 174.0625 198.132812 173.109375 197.636719 172.074219 Z M 200.65625 172.265625 C 200.578125 173.070312 200.503906 173.910156 200.503906 174.714844 C 200.464844 174.179688 200.386719 173.683594 200.3125 173.144531 C 200.273438 172.800781 200.234375 172.496094 200.195312 172.152344 C 200.195312 171.808594 200.195312 171.464844 200.234375 171.15625 C 200.160156 171.5 200.160156 171.847656 200.160156 172.152344 C 200.160156 172.496094 200.195312 172.839844 200.234375 173.144531 C 200.3125 173.683594 200.347656 174.179688 200.386719 174.714844 C 200.195312 174.21875 200.003906 173.683594 199.890625 173.183594 C 199.738281 172.457031 199.699219 171.691406 199.816406 170.964844 C 199.890625 170.582031 199.96875 170.238281 200.042969 169.855469 C 200.160156 169.472656 200.234375 169.128906 200.3125 168.746094 C 200.464844 167.984375 200.617188 167.21875 200.769531 166.453125 C 200.617188 167.21875 200.464844 167.984375 200.273438 168.746094 C 200.195312 169.128906 200.082031 169.511719 199.96875 169.855469 C 199.851562 170.238281 199.777344 170.582031 199.699219 170.964844 C 199.546875 171.730469 199.585938 172.496094 199.738281 173.222656 C 199.851562 173.796875 200.042969 174.371094 200.273438 174.945312 C 200.121094 174.675781 199.96875 174.410156 199.851562 174.140625 C 199.851562 174.101562 199.8125 174.101562 199.8125 174.101562 C 199.507812 173.453125 199.203125 172.839844 199.011719 172.152344 C 198.820312 171.464844 198.78125 170.773438 198.820312 170.046875 C 198.9375 168.632812 199.355469 167.257812 199.660156 165.839844 C 199.8125 165.152344 199.929688 164.464844 199.929688 163.738281 C 200.691406 164.503906 201.457031 165.304688 202.066406 166.261719 C 201.304688 167.332031 201.035156 168.671875 200.847656 169.933594 C 200.808594 170.699219 200.730469 171.5 200.65625 172.265625 Z M 192.976562 182.554688 C 192.019531 181.484375 191.488281 180.070312 190.609375 178.84375 C 190.265625 178.347656 189.84375 177.925781 189.386719 177.546875 C 190.109375 177.621094 190.835938 177.734375 191.601562 177.890625 C 192.519531 178.082031 193.472656 178.347656 194.351562 178.769531 C 195.230469 179.152344 196.070312 179.726562 196.683594 180.488281 C 197.179688 181.101562 197.445312 181.828125 197.445312 182.59375 C 197.445312 182.898438 197.40625 183.207031 197.332031 183.472656 C 197.179688 183.664062 197.027344 183.855469 196.871094 184.046875 C 196.835938 183.894531 196.835938 183.703125 196.796875 183.550781 C 196.71875 183.207031 196.644531 182.824219 196.566406 182.480469 C 196.492188 182.136719 196.375 181.789062 196.222656 181.445312 C 196.070312 181.101562 195.878906 180.757812 195.652344 180.488281 C 195.878906 180.796875 196.03125 181.140625 196.183594 181.484375 C 196.300781 181.828125 196.414062 182.171875 196.492188 182.554688 C 196.566406 182.898438 196.605469 183.28125 196.683594 183.625 C 196.71875 183.855469 196.757812 184.085938 196.757812 184.277344 C 196.71875 184.316406 196.71875 184.351562 196.683594 184.351562 C 196.492188 183.78125 196.261719 183.242188 195.957031 182.707031 C 195.765625 182.402344 195.574219 182.097656 195.34375 181.789062 C 195.117188 181.484375 194.847656 181.21875 194.582031 180.988281 C 193.472656 179.992188 192.175781 179.304688 190.953125 178.5 C 192.175781 179.34375 193.472656 180.03125 194.503906 181.0625 C 194.773438 181.332031 195 181.597656 195.230469 181.867188 C 195.460938 182.171875 195.652344 182.480469 195.804688 182.785156 C 196.070312 183.320312 196.300781 183.894531 196.492188 184.507812 C 195.613281 183.015625 194.238281 181.867188 192.632812 181.253906 C 194.160156 181.90625 195.460938 183.089844 196.261719 184.542969 C 194.960938 184.164062 193.855469 183.511719 192.976562 182.554688 Z M 192.136719 190.742188 L 192.25 190.894531 C 192.402344 191.160156 192.59375 191.46875 192.746094 191.734375 C 192.9375 192.003906 193.089844 192.308594 193.320312 192.539062 C 193.511719 192.804688 193.777344 193.035156 194.046875 193.226562 C 193.777344 193.035156 193.550781 192.769531 193.359375 192.5 C 193.167969 192.234375 193.015625 191.964844 192.824219 191.660156 C 192.671875 191.390625 192.519531 191.085938 192.363281 190.777344 L 192.25 190.589844 C 192.289062 190.550781 192.328125 190.511719 192.402344 190.472656 C 192.671875 190.777344 192.976562 191.085938 193.242188 191.390625 C 193.472656 191.621094 193.742188 191.851562 194.007812 192.042969 C 194.273438 192.234375 194.542969 192.425781 194.847656 192.578125 C 196.03125 193.226562 197.292969 193.648438 198.476562 194.222656 C 197.292969 193.570312 196.03125 193.152344 194.886719 192.460938 C 194.617188 192.308594 194.3125 192.117188 194.085938 191.886719 C 193.816406 191.695312 193.585938 191.46875 193.359375 191.238281 C 193.054688 190.933594 192.785156 190.625 192.519531 190.320312 C 192.554688 190.28125 192.554688 190.28125 192.59375 190.242188 C 193.777344 191.085938 195.152344 191.695312 196.566406 191.925781 C 195.152344 191.621094 193.855469 191.007812 192.746094 190.128906 C 192.824219 190.050781 192.9375 189.9375 193.015625 189.859375 C 194.046875 189.898438 195.078125 190.207031 195.957031 190.816406 C 197.101562 191.582031 197.828125 192.804688 198.746094 193.839844 C 199.125 194.261719 199.507812 194.605469 199.96875 194.910156 C 199.316406 194.871094 198.628906 194.871094 197.980469 194.796875 C 197.140625 194.71875 196.300781 194.605469 195.460938 194.414062 C 194.617188 194.222656 193.816406 193.953125 193.128906 193.417969 C 192.59375 192.996094 192.175781 192.460938 191.945312 191.851562 C 191.867188 191.582031 191.792969 191.316406 191.792969 191.046875 C 191.90625 190.96875 192.019531 190.855469 192.136719 190.742188 Z M 160.046875 190.472656 C 161.460938 193.265625 161.996094 196.324219 162.375 199.421875 C 160.847656 196.707031 160.046875 193.609375 160.046875 190.472656 Z M 165.242188 209.40625 C 165.394531 209.328125 165.546875 209.292969 165.699219 209.214844 C 165.96875 209.101562 166.195312 208.949219 166.464844 208.792969 C 166.730469 208.640625 166.960938 208.449219 167.191406 208.257812 C 167.417969 208.066406 167.609375 207.800781 167.761719 207.570312 C 167.609375 207.839844 167.382812 208.03125 167.191406 208.21875 C 166.960938 208.410156 166.730469 208.566406 166.464844 208.71875 C 166.195312 208.871094 165.96875 208.984375 165.699219 209.101562 C 165.546875 209.175781 165.394531 209.214844 165.28125 209.253906 C 165.28125 209.214844 165.28125 209.175781 165.242188 209.175781 C 165.585938 208.949219 165.929688 208.679688 166.195312 208.375 C 166.386719 208.183594 166.578125 207.953125 166.730469 207.683594 C 166.882812 207.457031 167 207.1875 167.113281 206.921875 C 167.535156 205.847656 167.648438 204.664062 167.953125 203.59375 C 167.609375 204.664062 167.457031 205.847656 167 206.882812 C 166.882812 207.148438 166.769531 207.378906 166.578125 207.648438 C 166.425781 207.875 166.234375 208.105469 166.042969 208.296875 C 165.777344 208.566406 165.433594 208.832031 165.128906 209.023438 C 165.128906 208.984375 165.128906 208.984375 165.128906 208.949219 C 165.472656 208.566406 165.777344 208.105469 165.96875 207.609375 C 166.234375 206.957031 166.351562 206.269531 166.351562 205.542969 C 166.3125 206.730469 165.890625 207.953125 165.089844 208.757812 C 165.011719 208.527344 164.972656 208.296875 164.9375 208.03125 C 165.011719 207.378906 165.164062 206.765625 165.472656 206.195312 C 165.96875 205.199219 166.847656 204.359375 167.570312 203.441406 C 167.878906 203.058594 168.105469 202.675781 168.296875 202.253906 C 168.375 202.828125 168.449219 203.402344 168.488281 203.9375 C 168.566406 204.664062 168.640625 205.390625 168.566406 206.15625 C 168.527344 206.921875 168.375 207.683594 167.917969 208.375 C 167.570312 208.910156 167.074219 209.328125 166.503906 209.519531 C 166.082031 209.675781 165.625 209.636719 165.203125 209.484375 C 165.242188 209.445312 165.242188 209.445312 165.242188 209.40625 Z M 153.742188 211.777344 C 152.828125 211.546875 152.0625 211.242188 151.296875 210.785156 C 150.574219 210.324219 149.921875 209.710938 149.386719 208.984375 C 148.816406 208.21875 148.394531 207.339844 148.355469 206.382812 C 148.320312 205.464844 148.851562 204.511719 149.730469 204.203125 C 149.808594 204.703125 149.886719 205.199219 150 205.695312 C 150.152344 206.421875 150.382812 207.148438 150.6875 207.839844 C 150.574219 207.722656 150.496094 207.570312 150.382812 207.457031 C 150.039062 207.035156 149.730469 206.574219 149.617188 206.039062 C 149.730469 206.574219 150 207.074219 150.304688 207.53125 C 150.574219 207.914062 150.839844 208.296875 151.105469 208.679688 C 150.34375 207.914062 149.617188 207.113281 148.96875 206.195312 C 149.730469 207.300781 150.574219 208.375 151.527344 209.328125 C 151.71875 209.558594 151.910156 209.828125 152.140625 210.019531 C 152.828125 210.667969 153.628906 211.089844 154.546875 211.585938 C 154.546875 211.585938 154.582031 211.585938 154.582031 211.585938 C 154.8125 211.703125 155.082031 211.816406 155.308594 211.894531 C 154.8125 211.96875 154.277344 211.894531 153.742188 211.777344 Z M 154.699219 211.320312 C 154.660156 211.320312 154.660156 211.28125 154.621094 211.28125 C 153.859375 210.898438 153.171875 210.515625 152.558594 209.980469 C 151.949219 209.445312 151.449219 208.792969 151.105469 208.066406 C 150.382812 206.613281 150.152344 205.007812 149.921875 203.476562 C 149.808594 202.710938 149.65625 201.984375 149.464844 201.257812 C 150.457031 201.792969 151.488281 202.292969 152.445312 202.902344 C 152.0625 204.203125 152.445312 205.621094 152.941406 206.882812 C 153.285156 207.648438 153.667969 208.410156 154.085938 209.175781 C 154.507812 209.902344 154.964844 210.667969 155.652344 211.355469 C 155.195312 210.972656 154.773438 210.554688 154.355469 210.171875 C 154.085938 209.902344 153.859375 209.636719 153.628906 209.328125 C 153.398438 209.023438 153.207031 208.71875 153.054688 208.375 C 153.207031 208.71875 153.398438 209.023438 153.628906 209.328125 C 153.859375 209.636719 154.085938 209.902344 154.355469 210.171875 C 154.773438 210.59375 155.195312 211.050781 155.691406 211.433594 C 155.082031 211.164062 154.546875 210.820312 154.085938 210.402344 C 153.4375 209.867188 152.941406 209.175781 152.597656 208.410156 C 152.445312 208.03125 152.292969 207.648438 152.175781 207.226562 L 151.832031 206.039062 C 151.605469 205.238281 151.414062 204.433594 151.261719 203.628906 C 151.414062 204.433594 151.605469 205.238281 151.792969 206.039062 L 152.101562 207.265625 C 152.214844 207.683594 152.328125 208.066406 152.484375 208.449219 C 152.789062 209.253906 153.324219 209.941406 153.972656 210.515625 C 154.46875 210.972656 155.082031 211.394531 155.769531 211.664062 C 155.386719 211.625 155.042969 211.472656 154.699219 211.320312 Z M 156.53125 211.128906 C 156.53125 210.210938 156.53125 209.40625 156.378906 208.527344 C 156.1875 207.457031 155.84375 206.460938 155.425781 205.503906 C 155.804688 206.5 156.148438 207.492188 156.300781 208.566406 C 156.417969 209.328125 156.378906 210.054688 156.378906 210.820312 C 156.148438 209.828125 155.996094 208.871094 155.613281 207.914062 C 155.15625 206.613281 154.46875 205.390625 153.628906 204.320312 C 154.46875 205.390625 155.082031 206.613281 155.5 207.953125 C 155.921875 209.136719 155.996094 210.285156 156.300781 211.511719 C 155.652344 211.011719 155.195312 210.402344 154.773438 209.789062 C 154.277344 209.023438 153.894531 208.257812 153.515625 207.457031 C 152.941406 206.269531 152.445312 204.929688 152.597656 203.59375 C 152.636719 203.285156 152.710938 202.941406 152.828125 202.675781 C 152.863281 202.523438 152.941406 202.292969 153.09375 202.214844 C 153.207031 202.140625 153.398438 202.214844 153.515625 202.253906 C 153.859375 202.40625 154.164062 202.597656 154.46875 202.828125 C 154.773438 203.058594 155.042969 203.285156 155.308594 203.554688 C 156.300781 204.585938 156.953125 205.925781 157.105469 207.417969 C 157.179688 208.105469 157.105469 208.71875 156.992188 209.367188 C 156.875 209.941406 156.761719 210.515625 156.570312 211.089844 C 156.570312 211.050781 156.53125 211.089844 156.53125 211.128906 Z M 159.167969 213.078125 C 159.28125 213.039062 159.433594 213 159.550781 212.886719 C 159.742188 212.734375 159.894531 212.542969 160.046875 212.351562 C 160.199219 212.160156 160.351562 211.929688 160.464844 211.738281 C 160.582031 211.511719 160.695312 211.28125 160.734375 211.050781 C 160.65625 211.28125 160.542969 211.511719 160.429688 211.703125 C 160.3125 211.890625 160.160156 212.082031 160.007812 212.273438 C 159.855469 212.464844 159.664062 212.65625 159.472656 212.773438 C 159.359375 212.847656 159.207031 212.925781 159.089844 212.925781 C 159.089844 212.925781 159.054688 212.886719 159.054688 212.886719 C 159.167969 212.847656 159.246094 212.773438 159.359375 212.65625 C 159.511719 212.503906 159.625 212.273438 159.703125 212.046875 C 159.777344 211.816406 159.894531 211.585938 159.933594 211.355469 C 160.007812 211.128906 160.046875 210.859375 160.085938 210.628906 C 160.199219 209.636719 160.160156 208.640625 160.238281 207.683594 C 160.121094 208.679688 160.160156 209.675781 160.007812 210.628906 C 159.96875 210.859375 159.933594 211.128906 159.855469 211.355469 C 159.777344 211.585938 159.703125 211.816406 159.589844 212.046875 C 159.472656 212.273438 159.359375 212.464844 159.246094 212.621094 C 159.167969 212.734375 159.054688 212.773438 158.976562 212.808594 C 159.015625 212.773438 159.054688 212.773438 159.054688 212.734375 C 159.128906 212.65625 159.167969 212.542969 159.207031 212.429688 C 159.28125 212.160156 159.320312 211.855469 159.320312 211.546875 C 159.359375 210.9375 159.320312 210.285156 159.207031 209.675781 C 159.320312 210.285156 159.320312 210.898438 159.246094 211.546875 C 159.207031 211.855469 159.167969 212.199219 159.089844 212.429688 C 159.054688 212.542969 159.015625 212.65625 158.9375 212.734375 C 158.9375 212.773438 158.902344 212.773438 158.902344 212.773438 C 158.863281 212.734375 158.785156 212.65625 158.746094 212.621094 C 158.746094 212.621094 158.746094 212.582031 158.746094 212.582031 C 158.671875 212.429688 158.632812 212.238281 158.554688 212.007812 C 158.480469 211.511719 158.480469 210.972656 158.59375 210.476562 C 158.824219 209.484375 159.472656 208.640625 159.933594 207.722656 C 160.121094 207.378906 160.277344 206.996094 160.351562 206.613281 C 160.503906 207.074219 160.65625 207.53125 160.808594 208.03125 C 161 208.640625 161.15625 209.253906 161.230469 209.867188 C 161.34375 210.476562 161.34375 211.128906 161.191406 211.703125 C 161.117188 211.929688 161.039062 212.160156 160.886719 212.390625 C 160.773438 212.621094 160.582031 212.886719 160.351562 213.039062 C 160.121094 213.230469 159.816406 213.308594 159.550781 213.269531 C 159.433594 213.191406 159.320312 213.15625 159.167969 213.078125 C 159.207031 213.078125 159.167969 213.078125 159.167969 213.078125 Z M 162.644531 218.585938 C 161.957031 219.773438 160.695312 220.726562 159.320312 221.074219 C 157.792969 221.453125 156.300781 221.074219 154.851562 220.917969 C 154.277344 220.882812 153.703125 220.84375 153.132812 220.917969 C 153.667969 220.460938 154.238281 220.039062 154.773438 219.582031 C 155.460938 219.046875 156.1875 218.507812 156.875 218.011719 C 157.5625 217.554688 158.328125 217.132812 159.128906 216.941406 C 159.777344 216.789062 160.464844 216.789062 161.117188 216.980469 C 161.421875 217.285156 161.765625 217.554688 162.070312 217.859375 C 161.996094 217.859375 161.878906 217.859375 161.804688 217.859375 C 161.460938 217.859375 161.117188 217.820312 160.773438 217.78125 C 160.429688 217.746094 160.085938 217.746094 159.742188 217.746094 C 159.398438 217.746094 159.054688 217.78125 158.746094 217.859375 C 159.089844 217.820312 159.398438 217.78125 159.742188 217.820312 C 160.085938 217.820312 160.429688 217.898438 160.773438 217.9375 C 161.117188 217.972656 161.460938 218.011719 161.804688 218.050781 C 161.957031 218.050781 162.148438 218.089844 162.300781 218.089844 C 162.339844 218.128906 162.414062 218.164062 162.453125 218.203125 C 161.878906 218.320312 161.308594 218.394531 160.773438 218.472656 C 160.429688 218.507812 160.085938 218.585938 159.742188 218.699219 C 159.398438 218.777344 159.054688 218.890625 158.710938 219.007812 C 157.371094 219.464844 156.113281 220.117188 154.773438 220.5 C 156.148438 220.15625 157.410156 219.542969 158.746094 219.121094 C 159.089844 219.007812 159.433594 218.929688 159.777344 218.855469 C 160.121094 218.777344 160.464844 218.699219 160.808594 218.664062 C 161.421875 218.585938 162.03125 218.507812 162.683594 218.394531 C 161 219.007812 159.398438 219.773438 157.984375 220.804688 C 159.398438 219.773438 160.964844 219.121094 162.644531 218.585938 Z M 184.496094 174.792969 C 184.457031 174.792969 184.417969 174.792969 184.382812 174.753906 C 184.113281 174.675781 183.882812 174.601562 183.65625 174.5625 C 183.425781 174.484375 183.160156 174.410156 182.929688 174.371094 C 182.660156 174.332031 182.433594 174.292969 182.164062 174.332031 C 182.433594 174.332031 182.660156 174.371094 182.890625 174.410156 C 183.121094 174.445312 183.386719 174.5625 183.617188 174.636719 C 183.847656 174.714844 184.113281 174.792969 184.34375 174.867188 C 184.417969 174.90625 184.496094 174.90625 184.570312 174.945312 C 184.609375 174.980469 184.609375 175.019531 184.648438 175.097656 C 184.304688 175.058594 183.921875 175.058594 183.578125 175.019531 C 183.3125 175.019531 183.042969 175.019531 182.816406 175.019531 C 182.546875 175.058594 182.28125 175.058594 182.050781 175.097656 C 181.019531 175.25 180.0625 175.59375 179.03125 175.671875 C 180.0625 175.59375 181.058594 175.328125 182.089844 175.171875 C 182.355469 175.136719 182.585938 175.097656 182.851562 175.097656 C 183.121094 175.097656 183.347656 175.097656 183.617188 175.097656 C 184 175.097656 184.382812 175.136719 184.761719 175.171875 C 184.761719 175.171875 184.761719 175.210938 184.800781 175.210938 C 183.578125 175.363281 182.394531 175.710938 181.324219 176.246094 C 182.472656 175.746094 183.65625 175.441406 184.878906 175.328125 C 184.878906 175.328125 184.878906 175.363281 184.914062 175.363281 C 184.265625 176.054688 183.3125 176.550781 182.316406 176.628906 C 181.171875 176.703125 180.140625 176.246094 179.109375 175.9375 C 178.6875 175.824219 178.269531 175.710938 177.847656 175.671875 C 178.34375 175.441406 178.804688 175.171875 179.222656 174.980469 C 179.796875 174.675781 180.371094 174.371094 180.90625 174.140625 C 181.476562 173.875 182.050781 173.683594 182.660156 173.644531 C 183.160156 173.605469 183.65625 173.71875 184.113281 173.949219 C 184.191406 173.988281 184.265625 174.027344 184.34375 174.0625 C 184.304688 174.371094 184.417969 174.601562 184.496094 174.792969 Z M 181.09375 161.671875 C 182.316406 160.371094 183.960938 159.835938 185.414062 159.109375 C 185.984375 158.804688 186.558594 158.496094 187.015625 158.078125 C 186.789062 158.839844 186.519531 159.566406 186.253906 160.292969 C 185.910156 161.210938 185.601562 162.128906 185.222656 163.011719 C 184.839844 163.890625 184.417969 164.695312 183.808594 165.382812 C 183.3125 165.917969 182.660156 166.300781 181.9375 166.566406 C 181.515625 166.71875 181.09375 166.796875 180.636719 166.757812 C 180.523438 166.644531 180.445312 166.566406 180.332031 166.453125 C 180.445312 166.375 180.597656 166.300781 180.714844 166.183594 C 181.058594 165.957031 181.402344 165.765625 181.707031 165.574219 C 182.050781 165.382812 182.394531 165.191406 182.699219 165 C 183.042969 164.808594 183.3125 164.539062 183.578125 164.3125 C 183.3125 164.578125 183.003906 164.769531 182.660156 164.960938 C 182.355469 165.152344 181.972656 165.304688 181.667969 165.496094 C 181.324219 165.648438 180.980469 165.839844 180.636719 166.03125 C 180.484375 166.109375 180.332031 166.183594 180.179688 166.300781 C 180.140625 166.261719 180.101562 166.222656 180.0625 166.183594 C 180.484375 165.765625 180.941406 165.382812 181.363281 164.960938 C 181.667969 164.695312 181.9375 164.386719 182.203125 164.121094 C 182.472656 163.8125 182.738281 163.507812 182.96875 163.203125 C 183.921875 161.976562 184.726562 160.601562 185.792969 159.414062 C 184.726562 160.5625 183.882812 161.902344 182.890625 163.125 C 182.660156 163.429688 182.394531 163.738281 182.128906 164.003906 C 181.859375 164.273438 181.554688 164.539062 181.285156 164.808594 C 180.867188 165.191406 180.40625 165.574219 179.949219 165.992188 C 179.949219 165.992188 179.910156 165.957031 179.910156 165.957031 C 181.019531 164.386719 181.972656 162.78125 182.660156 161.058594 C 181.898438 162.742188 180.90625 164.3125 179.757812 165.800781 C 179.71875 165.765625 179.644531 165.726562 179.605469 165.648438 C 179.492188 164.273438 180.101562 162.742188 181.09375 161.671875 Z M 176.816406 159.375 C 176.320312 160.027344 175.746094 160.601562 175.097656 161.058594 C 174.601562 161.402344 174.027344 161.710938 173.457031 161.902344 C 173.417969 161.902344 173.339844 161.941406 173.300781 161.941406 C 173.074219 162.015625 172.769531 162.09375 172.539062 162.09375 C 172.234375 162.054688 172.234375 161.785156 172.269531 161.558594 C 172.308594 161.289062 172.347656 160.984375 172.386719 160.714844 C 173.835938 160.371094 175.136719 159.53125 175.976562 158.34375 C 175.097656 159.453125 173.800781 160.179688 172.425781 160.449219 C 172.460938 160.21875 172.5 160.027344 172.5 159.796875 C 172.539062 159.53125 172.578125 159.300781 172.578125 159.03125 C 175.25 158.535156 177.390625 156.585938 178.878906 154.441406 C 178.460938 156.203125 177.886719 157.921875 176.816406 159.375 Z M 178.117188 148.859375 C 178.496094 147.328125 178.535156 145.722656 178.078125 144.152344 C 178.078125 144.078125 178.039062 144.039062 178.039062 143.960938 L 178.535156 142.816406 C 180.253906 144.6875 180.75 147.289062 180.253906 149.585938 C 179.949219 151 179.339844 152.339844 178.574219 153.523438 C 177.886719 154.59375 177.046875 155.628906 176.054688 156.46875 C 175.058594 157.3125 173.914062 157.960938 172.613281 158.269531 C 172.613281 158.191406 172.578125 158.113281 172.578125 158.039062 C 176.128906 156.011719 178.765625 152.414062 179.339844 148.398438 C 178.652344 152.261719 176.054688 155.550781 172.691406 157.425781 C 174.945312 154.902344 177.277344 152.261719 178.117188 148.859375 Z M 171.46875 136.425781 C 173.683594 138.609375 176.089844 140.902344 177.121094 143.734375 C 178.230469 146.792969 177.277344 149.890625 175.671875 152.414062 C 174.753906 153.867188 173.683594 155.132812 172.539062 156.394531 C 173.113281 155.511719 173.53125 154.558594 173.835938 153.5625 C 174.144531 152.492188 174.296875 151.34375 174.332031 150.234375 C 174.410156 147.980469 173.988281 145.722656 173.570312 143.464844 C 173.914062 145.722656 174.21875 147.980469 174.066406 150.195312 C 173.988281 151.304688 173.800781 152.414062 173.457031 153.449219 C 173.265625 153.984375 173.035156 154.519531 172.804688 155.015625 C 173.339844 153.105469 173.417969 151.039062 173.035156 149.050781 C 172.769531 147.710938 172.386719 146.449219 172.042969 145.148438 C 171.699219 143.847656 171.46875 142.507812 171.582031 141.207031 C 171.390625 142.507812 171.621094 143.886719 171.890625 145.1875 C 172.195312 146.488281 172.539062 147.789062 172.769531 149.085938 C 173.035156 150.886719 172.921875 152.722656 172.460938 154.480469 C 172.347656 151.6875 171.964844 148.859375 170.78125 146.179688 C 170.285156 145.109375 169.671875 144.078125 168.949219 143.160156 C 168.949219 143.121094 168.984375 143.082031 168.984375 143.007812 C 168.792969 140.519531 170.171875 138.417969 171.46875 136.425781 Z M 160.964844 139.679688 C 161.421875 139.753906 161.878906 139.792969 162.339844 139.90625 C 163.828125 140.253906 165.203125 140.824219 166.464844 141.78125 C 169.519531 144.152344 170.972656 147.824219 171.46875 151.382812 C 171.582031 152.148438 171.660156 152.914062 171.699219 153.714844 C 169.980469 148.820312 166.386719 144.496094 161.765625 141.78125 C 161.652344 141.707031 161.5 141.628906 161.382812 141.554688 C 161.5 141.628906 161.652344 141.707031 161.765625 141.78125 C 166.042969 144.535156 169.214844 148.667969 170.78125 153.179688 C 170.054688 151.6875 169.175781 150.273438 168.105469 148.972656 C 167.417969 148.132812 166.617188 147.367188 165.738281 146.714844 C 164.859375 146.066406 163.90625 145.53125 162.875 145.148438 C 163.90625 145.570312 164.820312 146.144531 165.664062 146.832031 C 166.503906 147.519531 167.265625 148.324219 167.917969 149.164062 C 168.71875 150.234375 169.40625 151.421875 169.980469 152.605469 C 169.824219 152.414062 169.671875 152.222656 169.519531 152.03125 C 167.839844 150.121094 165.625 148.78125 163.21875 148.09375 C 163.179688 148.09375 163.140625 148.054688 163.101562 148.054688 C 163.101562 148.054688 163.101562 148.054688 163.0625 148.054688 C 162.835938 147.980469 162.605469 147.941406 162.339844 147.863281 C 162.339844 147.863281 162.339844 147.863281 162.300781 147.863281 C 161.117188 147.441406 160.085938 146.523438 159.28125 145.644531 C 158.785156 145.109375 158.367188 144.496094 158.023438 143.847656 C 157.640625 143.007812 157.296875 142.164062 156.835938 141.363281 C 156.492188 140.710938 156.074219 140.097656 155.578125 139.5625 C 157.371094 139.410156 159.167969 139.449219 160.964844 139.679688 Z M 154.085938 144.117188 C 154.925781 143.617188 155.613281 142.777344 156.648438 142.585938 C 156.914062 143.121094 157.144531 143.695312 157.410156 144.230469 C 157.984375 145.414062 158.9375 146.449219 159.96875 147.25 C 158.632812 146.871094 157.296875 146.296875 156.074219 145.605469 C 157.179688 146.296875 158.402344 146.90625 159.664062 147.367188 C 158.136719 147.441406 156.609375 147.097656 155.234375 146.410156 C 156.226562 146.984375 157.371094 147.367188 158.554688 147.519531 C 157.945312 147.558594 157.371094 147.632812 156.761719 147.75 C 156.113281 147.863281 155.5 148.09375 154.925781 148.324219 C 154.890625 148.285156 154.851562 148.285156 154.773438 148.246094 C 153.859375 148.167969 153.515625 147.136719 153.171875 146.449219 C 152.863281 145.835938 152.558594 145.226562 152.253906 144.652344 C 152.863281 144.6875 153.515625 144.460938 154.085938 144.117188 Z M 150.382812 150.808594 C 152.214844 150.386719 153.894531 149.433594 155.691406 148.820312 C 157.714844 148.167969 159.933594 148.054688 162.070312 148.515625 C 162.222656 148.589844 162.414062 148.628906 162.605469 148.667969 C 162.71875 148.707031 162.835938 148.707031 162.949219 148.742188 C 162.988281 148.742188 162.988281 148.742188 163.027344 148.742188 C 167.039062 149.929688 170.324219 153.105469 171.546875 157.003906 C 171.699219 157.464844 171.890625 158 171.925781 158.496094 C 171.925781 158.804688 171.851562 159.148438 171.8125 159.414062 C 171.734375 160.027344 171.660156 160.640625 171.582031 161.210938 C 171.390625 161.058594 171.238281 160.867188 171.085938 160.675781 C 170.78125 160.257812 170.515625 159.796875 170.246094 159.339844 C 169.710938 158.421875 169.253906 157.425781 168.640625 156.546875 C 167.570312 154.941406 166.007812 153.640625 164.25 152.796875 C 164.019531 152.683594 163.828125 152.605469 163.597656 152.53125 C 163.828125 152.644531 164.058594 152.722656 164.25 152.835938 C 165.96875 153.714844 167.417969 155.054688 168.414062 156.660156 C 168.984375 157.578125 169.40625 158.535156 169.902344 159.492188 C 170.171875 159.949219 170.398438 160.449219 170.742188 160.90625 C 170.820312 161.023438 170.894531 161.097656 170.972656 161.175781 C 170.171875 160.867188 169.367188 160.484375 168.605469 160.066406 C 168.03125 159.757812 167.496094 159.414062 166.921875 159.070312 C 166.386719 158.726562 165.851562 158.34375 165.316406 158 C 164.25 157.273438 163.179688 156.507812 162.070312 155.820312 C 160.964844 155.132812 159.816406 154.480469 158.59375 154.023438 C 159.777344 154.558594 160.886719 155.246094 161.957031 156.011719 C 163.027344 156.738281 164.058594 157.539062 165.089844 158.34375 C 165.816406 158.878906 166.539062 159.414062 167.265625 159.949219 C 167.609375 160.179688 167.953125 160.410156 168.296875 160.601562 C 168.949219 161.023438 169.671875 161.402344 170.359375 161.710938 C 169.480469 161.519531 168.605469 161.289062 167.726562 160.984375 C 167.609375 160.945312 167.496094 160.90625 167.417969 160.867188 C 166.007812 160.332031 164.59375 159.683594 163.253906 158.957031 C 160.582031 157.503906 157.984375 155.820312 155.15625 154.558594 C 157.90625 155.894531 160.464844 157.617188 163.101562 159.148438 C 164.441406 159.914062 165.816406 160.640625 167.226562 161.210938 C 167.457031 161.289062 167.6875 161.402344 167.878906 161.480469 C 168.949219 161.863281 170.054688 162.167969 171.203125 162.359375 C 171.125 162.398438 171.011719 162.476562 170.933594 162.511719 C 170.132812 162.703125 169.328125 162.894531 168.527344 163.011719 C 167.878906 163.085938 167.226562 163.164062 166.539062 163.164062 C 164.820312 163.203125 163.0625 162.894531 161.5 162.128906 C 163.027344 162.972656 164.785156 163.355469 166.539062 163.394531 C 167.265625 163.429688 167.953125 163.394531 168.679688 163.316406 C 169.101562 163.277344 169.519531 163.238281 169.941406 163.164062 C 169.710938 163.316406 169.445312 163.46875 169.214844 163.621094 C 169.101562 163.699219 169.023438 163.738281 168.910156 163.8125 C 168.105469 164.234375 167.304688 164.503906 166.425781 164.65625 C 164.515625 165 162.566406 164.847656 160.773438 164.347656 C 159.054688 163.890625 157.488281 163.046875 156.148438 161.902344 C 156.148438 161.824219 156.113281 161.75 156.074219 161.671875 C 155.769531 161.328125 155.425781 161.058594 155.042969 160.832031 C 153.933594 159.644531 153.015625 158.230469 152.367188 156.699219 C 151.605469 154.863281 151.375 152.722656 150.382812 150.808594 Z M 146.941406 156.125 C 147.59375 155.933594 148.203125 155.78125 148.851562 155.628906 C 149.578125 155.4375 150.574219 155.015625 151.183594 155.703125 C 151.183594 155.703125 151.183594 155.703125 151.222656 155.703125 C 151.335938 156.085938 151.449219 156.429688 151.566406 156.8125 C 151.832031 157.503906 152.140625 158.152344 152.484375 158.804688 C 151.792969 158.113281 150.953125 157.578125 150.039062 157.234375 C 151.375 157.808594 152.484375 158.804688 153.246094 160.066406 C 152.214844 159.375 151.105469 158.804688 149.921875 158.421875 C 151.144531 158.917969 152.253906 159.566406 153.285156 160.371094 C 152.863281 160.292969 152.445312 160.21875 152.0625 160.179688 C 151.335938 160.105469 150.574219 160.105469 149.886719 160.257812 C 149.234375 160.410156 148.625 160.601562 147.976562 160.792969 C 147.554688 159.914062 147.785156 158.878906 147.667969 157.921875 C 147.59375 157.234375 147.363281 156.585938 146.941406 156.125 Z M 152.863281 168.785156 C 151.183594 168.402344 149.769531 167.523438 148.546875 166.300781 C 147.289062 165 146.179688 163.546875 145.148438 162.015625 C 146.5625 162.054688 147.9375 161.519531 149.3125 161.136719 C 150.726562 160.714844 152.214844 160.792969 153.628906 161.25 C 153.703125 161.289062 153.742188 161.289062 153.820312 161.328125 C 154.085938 161.402344 154.355469 161.519531 154.621094 161.671875 C 154.699219 161.785156 154.8125 161.863281 154.925781 161.976562 C 156.875 163.851562 159.359375 165.113281 162.03125 165.535156 C 160.964844 165.648438 159.894531 165.6875 158.824219 165.613281 C 157.832031 165.535156 156.835938 165.382812 155.921875 165.113281 C 155.769531 165.074219 155.613281 165.039062 155.460938 164.960938 C 154.660156 164.695312 153.933594 164.347656 153.246094 163.890625 C 153.933594 164.386719 154.738281 164.808594 155.539062 165.113281 C 155.652344 165.152344 155.769531 165.191406 155.882812 165.230469 C 156.835938 165.535156 157.792969 165.765625 158.824219 165.839844 C 160.351562 165.992188 161.917969 165.957031 163.484375 165.800781 C 161.039062 166.339844 158.519531 166.53125 156.074219 166.339844 C 153.894531 166.148438 151.757812 165.6875 149.769531 164.960938 C 151.792969 165.839844 153.972656 166.414062 156.226562 166.683594 C 158.863281 166.988281 161.613281 166.875 164.324219 166.339844 C 162.261719 167.410156 160.121094 168.367188 157.867188 168.785156 C 157.640625 168.824219 157.410156 168.863281 157.21875 168.902344 C 155.691406 169.09375 154.238281 169.09375 152.863281 168.785156 Z M 154.699219 176.207031 C 153.246094 176.128906 151.832031 175.863281 150.417969 175.671875 C 151.414062 173.492188 152.40625 171.195312 154.429688 169.855469 C 154.46875 169.820312 154.507812 169.78125 154.546875 169.742188 C 155.5 169.78125 156.457031 169.703125 157.449219 169.550781 C 159.089844 169.285156 160.734375 168.710938 162.261719 168.058594 C 163.292969 167.601562 164.285156 167.101562 165.28125 166.566406 C 164.019531 167.828125 162.53125 168.824219 160.886719 169.550781 C 159.894531 170.011719 158.902344 170.355469 157.90625 170.738281 C 157.714844 170.8125 157.523438 170.890625 157.335938 170.964844 C 156.148438 171.464844 155.042969 172.039062 154.085938 172.957031 C 155.042969 172.074219 156.1875 171.539062 157.371094 171.082031 C 157.5625 171.003906 157.753906 170.929688 157.945312 170.851562 C 158.9375 170.507812 159.933594 170.203125 160.925781 169.78125 C 162.71875 169.054688 164.402344 167.984375 165.816406 166.605469 C 165.507812 167.066406 165.128906 167.523438 164.746094 167.945312 C 164.019531 168.746094 163.179688 169.4375 162.261719 170.085938 C 161.078125 170.929688 159.816406 171.617188 158.519531 172.304688 C 157.867188 172.648438 157.257812 172.957031 156.609375 173.261719 C 157.257812 172.957031 157.90625 172.6875 158.554688 172.382812 C 159.855469 171.769531 161.15625 171.121094 162.414062 170.316406 C 163.332031 169.703125 164.210938 169.015625 165.011719 168.25 C 165.738281 167.523438 166.386719 166.71875 166.882812 165.800781 C 165.777344 168.632812 164.476562 171.464844 162.261719 173.605469 C 161.535156 174.292969 160.734375 174.90625 159.855469 175.328125 C 159.472656 175.519531 159.054688 175.710938 158.632812 175.863281 C 157.371094 176.246094 156.035156 176.28125 154.699219 176.207031 Z M 161.269531 177.199219 C 161.117188 177.238281 160.964844 177.316406 160.808594 177.355469 C 159.894531 177.621094 158.9375 177.699219 158.023438 177.507812 L 158.746094 176.511719 C 159.246094 176.359375 159.742188 176.167969 160.199219 175.9375 C 162.339844 174.828125 164.132812 172.878906 165.394531 170.738281 C 166.425781 169.015625 167.152344 167.179688 167.878906 165.34375 C 167.6875 169.128906 165.738281 172.839844 162.796875 175.328125 C 165.929688 172.878906 168.105469 169.054688 168.375 164.960938 C 168.449219 164.921875 168.527344 164.882812 168.605469 164.882812 C 169.175781 167.257812 168.335938 169.703125 167.152344 171.808594 C 165.777344 174.179688 163.789062 176.320312 161.269531 177.199219 Z M 170.972656 168.554688 C 170.132812 169.933594 168.949219 171.042969 167.761719 172.113281 C 168.375 171.082031 168.871094 169.972656 169.175781 168.824219 C 169.558594 167.484375 169.636719 166.070312 169.328125 164.730469 C 169.328125 164.65625 169.292969 164.617188 169.292969 164.539062 C 169.710938 164.3125 170.09375 164.082031 170.515625 163.8125 C 170.78125 164.882812 170.742188 166.03125 170.398438 167.101562 C 170.324219 167.332031 170.207031 167.5625 170.132812 167.792969 C 170.246094 167.601562 170.359375 167.371094 170.4375 167.140625 C 170.894531 166.070312 171.011719 164.847656 170.742188 163.660156 C 171.125 163.394531 171.507812 163.164062 171.925781 162.894531 C 171.925781 162.894531 171.964844 162.894531 171.964844 162.894531 C 172.578125 164.578125 172.15625 166.492188 171.277344 168.058594 C 171.164062 168.25 171.085938 168.402344 170.972656 168.554688 Z M 184.34375 199.347656 L 171.316406 169.320312 C 172.234375 168.019531 172.84375 166.605469 172.957031 164.921875 C 172.996094 164.273438 172.921875 163.621094 172.769531 163.011719 C 172.84375 163.125 172.957031 163.203125 173.074219 163.238281 C 177.351562 165 180.941406 168.210938 183.273438 172.226562 C 183.539062 172.726562 183.808594 173.222656 184.074219 173.757812 C 183.691406 173.566406 183.273438 173.453125 182.851562 173.453125 C 181.554688 173.414062 180.40625 174.140625 179.261719 174.714844 C 178.652344 175.019531 177.925781 175.402344 177.199219 175.785156 C 177.085938 175.824219 177.160156 176.015625 177.277344 176.015625 C 178.34375 175.9375 179.375 176.4375 180.445312 176.742188 C 180.980469 176.894531 181.554688 177.007812 182.128906 176.972656 C 182.699219 176.933594 183.273438 176.78125 183.808594 176.511719 C 184.226562 176.320312 184.609375 176.054688 184.914062 175.710938 C 184.953125 175.785156 184.953125 175.863281 184.992188 175.898438 C 184.992188 175.9375 185.03125 175.976562 185.03125 175.976562 C 186.214844 179.152344 186.75 182.554688 187.054688 185.921875 C 187.285156 188.636719 187.359375 191.316406 187.398438 194.03125 C 187.167969 194.335938 186.941406 194.640625 186.75 194.949219 C 185.757812 196.402344 184.992188 197.855469 184.34375 199.347656 Z M 184.34375 199.347656 " fill-opacity="1" fill-rule="nonzero"/></g><g fill="#a37b40" fill-opacity="1"><g transform="translate(155.724865, 278.025298)"><g><path d="M 0.578125 0.25 C 0.484375 0.21875 0.40625 0.171875 0.34375 0.109375 C 0.289062 0.0546875 0.273438 0 0.296875 -0.0625 C 0.328125 -0.1875 0.476562 -0.242188 0.75 -0.234375 C 1.125 -0.210938 1.410156 -0.242188 1.609375 -0.328125 C 1.816406 -0.410156 1.96875 -0.613281 2.0625 -0.9375 L 4.015625 -7.625 C 4.117188 -7.96875 4.125 -8.234375 4.03125 -8.421875 C 3.945312 -8.609375 3.734375 -8.78125 3.390625 -8.9375 C 3.253906 -9 3.164062 -9.066406 3.125 -9.140625 C 3.09375 -9.222656 3.082031 -9.296875 3.09375 -9.359375 C 3.113281 -9.421875 3.160156 -9.457031 3.234375 -9.46875 C 3.304688 -9.488281 3.394531 -9.484375 3.5 -9.453125 C 3.800781 -9.367188 4.039062 -9.289062 4.21875 -9.21875 C 4.40625 -9.15625 4.582031 -9.09375 4.75 -9.03125 C 4.914062 -8.96875 5.109375 -8.90625 5.328125 -8.84375 C 5.546875 -8.78125 5.742188 -8.734375 5.921875 -8.703125 C 6.097656 -8.671875 6.289062 -8.628906 6.5 -8.578125 C 6.71875 -8.535156 6.988281 -8.46875 7.3125 -8.375 C 8.46875 -8.03125 9.296875 -7.609375 9.796875 -7.109375 C 10.296875 -6.617188 10.425781 -5.96875 10.1875 -5.15625 C 10.09375 -4.832031 9.941406 -4.554688 9.734375 -4.328125 C 9.535156 -4.097656 9.320312 -3.9375 9.09375 -3.84375 C 8.894531 -3.75 8.703125 -3.679688 8.515625 -3.640625 C 8.335938 -3.597656 8.125 -3.570312 7.875 -3.5625 C 7.820312 -3.5625 7.789062 -3.539062 7.78125 -3.5 C 7.769531 -3.46875 7.785156 -3.441406 7.828125 -3.421875 C 8.054688 -3.285156 8.285156 -3.128906 8.515625 -2.953125 C 8.753906 -2.785156 8.960938 -2.578125 9.140625 -2.328125 C 9.316406 -2.078125 9.4375 -1.789062 9.5 -1.46875 C 9.5625 -1.15625 9.53125 -0.78125 9.40625 -0.34375 C 9.238281 0.195312 9.019531 0.601562 8.75 0.875 C 8.476562 1.144531 8.195312 1.328125 7.90625 1.421875 C 7.625 1.523438 7.363281 1.59375 7.125 1.625 C 6.757812 1.695312 6.363281 1.710938 5.9375 1.671875 C 5.507812 1.640625 5.007812 1.539062 4.4375 1.375 C 4.175781 1.289062 3.894531 1.191406 3.59375 1.078125 C 3.300781 0.972656 2.984375 0.875 2.640625 0.78125 C 2.421875 0.707031 2.195312 0.644531 1.96875 0.59375 C 1.738281 0.539062 1.507812 0.488281 1.28125 0.4375 C 1.050781 0.382812 0.816406 0.320312 0.578125 0.25 Z M 4.734375 0.65625 C 5.078125 0.757812 5.421875 0.753906 5.765625 0.640625 C 6.117188 0.535156 6.429688 0.351562 6.703125 0.09375 C 6.972656 -0.164062 7.164062 -0.488281 7.28125 -0.875 C 7.382812 -1.226562 7.414062 -1.535156 7.375 -1.796875 C 7.34375 -2.054688 7.28125 -2.273438 7.1875 -2.453125 C 7.101562 -2.640625 7.019531 -2.785156 6.9375 -2.890625 C 6.851562 -2.992188 6.710938 -3.113281 6.515625 -3.25 C 6.316406 -3.394531 6.039062 -3.519531 5.6875 -3.625 C 5.476562 -3.6875 5.289062 -3.6875 5.125 -3.625 C 4.957031 -3.570312 4.851562 -3.476562 4.8125 -3.34375 L 4.015625 -0.625 C 3.910156 -0.28125 3.925781 -0.00390625 4.0625 0.203125 C 4.195312 0.410156 4.421875 0.5625 4.734375 0.65625 Z M 5.75 -4.21875 C 6 -4.144531 6.25 -4.101562 6.5 -4.09375 C 6.757812 -4.09375 7.03125 -4.132812 7.3125 -4.21875 C 7.425781 -4.257812 7.578125 -4.367188 7.765625 -4.546875 C 7.960938 -4.722656 8.125 -5.019531 8.25 -5.4375 C 8.351562 -5.800781 8.394531 -6.140625 8.375 -6.453125 C 8.351562 -6.773438 8.238281 -7.050781 8.03125 -7.28125 C 7.832031 -7.507812 7.507812 -7.691406 7.0625 -7.828125 C 6.738281 -7.921875 6.5 -7.929688 6.34375 -7.859375 C 6.1875 -7.785156 6.078125 -7.644531 6.015625 -7.4375 L 5.28125 -4.953125 C 5.21875 -4.742188 5.25 -4.578125 5.375 -4.453125 C 5.507812 -4.328125 5.632812 -4.25 5.75 -4.21875 Z M 5.75 -4.21875 "/></g></g></g><g fill="#a37b40" fill-opacity="1"><g transform="translate(170.557978, 281.878316)"><g><path d="M 0.734375 0.171875 C 0.617188 0.160156 0.53125 0.128906 0.46875 0.078125 C 0.414062 0.0234375 0.394531 -0.03125 0.40625 -0.09375 C 0.425781 -0.226562 0.570312 -0.304688 0.84375 -0.328125 C 1.21875 -0.367188 1.488281 -0.445312 1.65625 -0.5625 C 1.832031 -0.675781 1.941406 -0.898438 1.984375 -1.234375 L 2.90625 -8.140625 C 2.957031 -8.492188 2.921875 -8.75 2.796875 -8.90625 C 2.679688 -9.0625 2.441406 -9.207031 2.078125 -9.34375 C 1.941406 -9.394531 1.847656 -9.453125 1.796875 -9.515625 C 1.742188 -9.578125 1.722656 -9.640625 1.734375 -9.703125 C 1.742188 -9.765625 1.78125 -9.8125 1.84375 -9.84375 C 1.914062 -9.875 2.007812 -9.878906 2.125 -9.859375 C 2.414062 -9.816406 2.691406 -9.773438 2.953125 -9.734375 C 3.222656 -9.691406 3.484375 -9.644531 3.734375 -9.59375 C 3.984375 -9.550781 4.25 -9.515625 4.53125 -9.484375 C 5 -9.421875 5.492188 -9.359375 6.015625 -9.296875 C 6.535156 -9.234375 7.007812 -9.175781 7.4375 -9.125 C 7.769531 -9.09375 8.046875 -9.066406 8.265625 -9.046875 C 8.484375 -9.035156 8.613281 -9.03125 8.65625 -9.03125 C 8.726562 -9.019531 8.800781 -8.992188 8.875 -8.953125 C 8.945312 -8.921875 8.984375 -8.863281 8.984375 -8.78125 C 8.984375 -8.425781 8.988281 -8.082031 9 -7.75 C 9.019531 -7.414062 9.015625 -7.132812 8.984375 -6.90625 C 8.972656 -6.8125 8.941406 -6.742188 8.890625 -6.703125 C 8.835938 -6.660156 8.785156 -6.644531 8.734375 -6.65625 C 8.679688 -6.65625 8.632812 -6.675781 8.59375 -6.71875 C 8.5625 -6.757812 8.535156 -6.820312 8.515625 -6.90625 C 8.460938 -7.132812 8.410156 -7.335938 8.359375 -7.515625 C 8.316406 -7.703125 8.253906 -7.851562 8.171875 -7.96875 C 8.054688 -8.113281 7.914062 -8.238281 7.75 -8.34375 C 7.582031 -8.457031 7.382812 -8.53125 7.15625 -8.5625 L 5.71875 -8.75 C 5.550781 -8.769531 5.382812 -8.738281 5.21875 -8.65625 C 5.050781 -8.570312 4.953125 -8.429688 4.921875 -8.234375 L 4.53125 -5.25 C 4.507812 -5.132812 4.53125 -5.039062 4.59375 -4.96875 C 4.65625 -4.894531 4.734375 -4.851562 4.828125 -4.84375 L 6.21875 -4.65625 C 6.5 -4.625 6.703125 -4.675781 6.828125 -4.8125 C 6.960938 -4.957031 7.085938 -5.148438 7.203125 -5.390625 C 7.304688 -5.585938 7.421875 -5.675781 7.546875 -5.65625 C 7.597656 -5.65625 7.640625 -5.625 7.671875 -5.5625 C 7.703125 -5.5 7.710938 -5.421875 7.703125 -5.328125 C 7.679688 -5.242188 7.65625 -5.128906 7.625 -4.984375 C 7.59375 -4.835938 7.5625 -4.691406 7.53125 -4.546875 C 7.507812 -4.398438 7.492188 -4.273438 7.484375 -4.171875 C 7.472656 -4.046875 7.457031 -3.90625 7.4375 -3.75 C 7.425781 -3.601562 7.410156 -3.457031 7.390625 -3.3125 C 7.378906 -3.164062 7.375 -3.039062 7.375 -2.9375 C 7.363281 -2.820312 7.34375 -2.734375 7.3125 -2.671875 C 7.28125 -2.609375 7.234375 -2.582031 7.171875 -2.59375 C 7.003906 -2.613281 6.898438 -2.773438 6.859375 -3.078125 C 6.828125 -3.367188 6.765625 -3.59375 6.671875 -3.75 C 6.578125 -3.90625 6.429688 -3.992188 6.234375 -4.015625 L 4.8125 -4.203125 C 4.675781 -4.222656 4.566406 -4.210938 4.484375 -4.171875 C 4.410156 -4.128906 4.363281 -4.039062 4.34375 -3.90625 L 3.96875 -1 C 3.925781 -0.664062 3.96875 -0.421875 4.09375 -0.265625 C 4.21875 -0.117188 4.421875 -0.03125 4.703125 0 L 5.96875 0.171875 C 6.207031 0.203125 6.4375 0.207031 6.65625 0.1875 C 6.875 0.164062 7.070312 0.109375 7.25 0.015625 C 7.425781 -0.078125 7.597656 -0.21875 7.765625 -0.40625 C 7.941406 -0.601562 8.113281 -0.820312 8.28125 -1.0625 C 8.320312 -1.144531 8.363281 -1.195312 8.40625 -1.21875 C 8.445312 -1.238281 8.5 -1.242188 8.5625 -1.234375 C 8.613281 -1.210938 8.644531 -1.175781 8.65625 -1.125 C 8.675781 -1.070312 8.679688 -1.015625 8.671875 -0.953125 C 8.660156 -0.804688 8.613281 -0.625 8.53125 -0.40625 C 8.445312 -0.1875 8.351562 0.03125 8.25 0.25 C 8.144531 0.476562 8.050781 0.691406 7.96875 0.890625 C 7.925781 0.960938 7.875 1.015625 7.8125 1.046875 C 7.757812 1.078125 7.695312 1.085938 7.625 1.078125 C 7.375 1.046875 7.0625 1 6.6875 0.9375 C 6.320312 0.882812 5.910156 0.820312 5.453125 0.75 C 5.003906 0.6875 4.546875 0.617188 4.078125 0.546875 C 3.609375 0.484375 3.160156 0.421875 2.734375 0.359375 C 2.523438 0.335938 2.3125 0.316406 2.09375 0.296875 C 1.875 0.273438 1.648438 0.253906 1.421875 0.234375 C 1.191406 0.222656 0.960938 0.203125 0.734375 0.171875 Z M 0.734375 0.171875 "/></g></g></g><g fill="#a37b40" fill-opacity="1"><g transform="translate(185.192417, 283.41724)"><g><path d="M 5.203125 0.09375 C 5.078125 0.09375 4.988281 0.0234375 4.9375 -0.109375 C 4.875 -0.242188 4.789062 -0.425781 4.6875 -0.65625 C 4.582031 -0.882812 4.492188 -1.097656 4.421875 -1.296875 L 1.28125 -8.484375 C 1.175781 -8.734375 1.03125 -8.953125 0.84375 -9.140625 C 0.664062 -9.328125 0.4375 -9.457031 0.15625 -9.53125 C 0.03125 -9.5625 -0.0703125 -9.597656 -0.15625 -9.640625 C -0.238281 -9.691406 -0.28125 -9.757812 -0.28125 -9.84375 C -0.28125 -9.914062 -0.242188 -9.96875 -0.171875 -10 C -0.0976562 -10.039062 -0.0078125 -10.066406 0.09375 -10.078125 C 0.269531 -10.078125 0.484375 -10.078125 0.734375 -10.078125 C 0.992188 -10.078125 1.25 -10.070312 1.5 -10.0625 C 1.757812 -10.0625 1.992188 -10.0625 2.203125 -10.0625 C 2.410156 -10.070312 2.644531 -10.082031 2.90625 -10.09375 C 3.175781 -10.113281 3.4375 -10.132812 3.6875 -10.15625 C 3.9375 -10.175781 4.148438 -10.1875 4.328125 -10.1875 C 4.429688 -10.195312 4.53125 -10.179688 4.625 -10.140625 C 4.71875 -10.109375 4.765625 -10.054688 4.765625 -9.984375 C 4.765625 -9.898438 4.71875 -9.828125 4.625 -9.765625 C 4.539062 -9.710938 4.429688 -9.671875 4.296875 -9.640625 C 4.003906 -9.578125 3.773438 -9.5 3.609375 -9.40625 C 3.453125 -9.320312 3.378906 -9.195312 3.390625 -9.03125 C 3.390625 -8.925781 3.40625 -8.828125 3.4375 -8.734375 C 3.476562 -8.640625 3.503906 -8.554688 3.515625 -8.484375 L 5.75 -2.890625 C 5.769531 -2.835938 5.789062 -2.804688 5.8125 -2.796875 C 5.84375 -2.785156 5.875 -2.820312 5.90625 -2.90625 L 7.65625 -7.9375 C 7.84375 -8.476562 7.863281 -8.894531 7.71875 -9.1875 C 7.570312 -9.488281 7.296875 -9.664062 6.890625 -9.71875 C 6.753906 -9.738281 6.632812 -9.773438 6.53125 -9.828125 C 6.425781 -9.878906 6.375 -9.945312 6.375 -10.03125 C 6.375 -10.101562 6.421875 -10.15625 6.515625 -10.1875 C 6.609375 -10.226562 6.710938 -10.25 6.828125 -10.25 C 7.003906 -10.25 7.171875 -10.25 7.328125 -10.25 C 7.484375 -10.25 7.632812 -10.25 7.78125 -10.25 C 7.9375 -10.25 8.113281 -10.253906 8.3125 -10.265625 C 8.613281 -10.265625 8.910156 -10.28125 9.203125 -10.3125 C 9.492188 -10.34375 9.765625 -10.363281 10.015625 -10.375 C 10.140625 -10.375 10.25 -10.359375 10.34375 -10.328125 C 10.4375 -10.296875 10.484375 -10.238281 10.484375 -10.15625 C 10.484375 -10.0625 10.441406 -9.992188 10.359375 -9.953125 C 10.273438 -9.910156 10.171875 -9.875 10.046875 -9.84375 C 9.710938 -9.75 9.4375 -9.578125 9.21875 -9.328125 C 9 -9.078125 8.816406 -8.753906 8.671875 -8.359375 L 6.3125 -2.234375 C 6.21875 -1.941406 6.117188 -1.671875 6.015625 -1.421875 C 5.910156 -1.179688 5.816406 -0.953125 5.734375 -0.734375 C 5.660156 -0.515625 5.578125 -0.3125 5.484375 -0.125 C 5.453125 -0.0507812 5.414062 0 5.375 0.03125 C 5.332031 0.0625 5.273438 0.0820312 5.203125 0.09375 Z M 5.203125 0.09375 "/></g></g></g><g fill="#a37b40" fill-opacity="1"><g transform="translate(201.688699, 282.349043)"><g><path d="M 0.609375 -0.046875 C 0.535156 -0.0234375 0.457031 -0.0234375 0.375 -0.046875 C 0.289062 -0.078125 0.242188 -0.125 0.234375 -0.1875 C 0.210938 -0.34375 0.316406 -0.46875 0.546875 -0.5625 C 0.929688 -0.6875 1.191406 -0.835938 1.328125 -1.015625 C 1.472656 -1.191406 1.519531 -1.441406 1.46875 -1.765625 L 0.28125 -8.640625 C 0.21875 -8.984375 0.109375 -9.207031 -0.046875 -9.3125 C -0.203125 -9.425781 -0.492188 -9.492188 -0.921875 -9.515625 C -1.171875 -9.523438 -1.304688 -9.613281 -1.328125 -9.78125 C -1.335938 -9.84375 -1.3125 -9.894531 -1.25 -9.9375 C -1.195312 -9.988281 -1.125 -10.019531 -1.03125 -10.03125 C -0.78125 -10.082031 -0.539062 -10.117188 -0.3125 -10.140625 C -0.0820312 -10.171875 0.140625 -10.195312 0.359375 -10.21875 C 0.578125 -10.25 0.796875 -10.285156 1.015625 -10.328125 C 1.234375 -10.367188 1.453125 -10.410156 1.671875 -10.453125 C 1.890625 -10.503906 2.113281 -10.550781 2.34375 -10.59375 C 2.570312 -10.644531 2.8125 -10.695312 3.0625 -10.75 C 3.15625 -10.757812 3.234375 -10.75 3.296875 -10.71875 C 3.367188 -10.695312 3.410156 -10.648438 3.421875 -10.578125 C 3.429688 -10.492188 3.40625 -10.421875 3.34375 -10.359375 C 3.289062 -10.304688 3.207031 -10.253906 3.09375 -10.203125 C 2.707031 -10.023438 2.457031 -9.859375 2.34375 -9.703125 C 2.226562 -9.546875 2.195312 -9.300781 2.25 -8.96875 L 3.4375 -2.125 C 3.488281 -1.8125 3.609375 -1.59375 3.796875 -1.46875 C 3.992188 -1.351562 4.289062 -1.289062 4.6875 -1.28125 C 4.820312 -1.269531 4.925781 -1.25 5 -1.21875 C 5.070312 -1.1875 5.113281 -1.128906 5.125 -1.046875 C 5.132812 -0.972656 5.113281 -0.914062 5.0625 -0.875 C 5.007812 -0.832031 4.929688 -0.800781 4.828125 -0.78125 C 4.585938 -0.738281 4.34375 -0.703125 4.09375 -0.671875 C 3.84375 -0.640625 3.601562 -0.609375 3.375 -0.578125 C 3.15625 -0.554688 2.9375 -0.523438 2.71875 -0.484375 C 2.5 -0.441406 2.269531 -0.394531 2.03125 -0.34375 C 1.800781 -0.300781 1.566406 -0.25 1.328125 -0.1875 C 1.097656 -0.132812 0.859375 -0.0859375 0.609375 -0.046875 Z M 0.609375 -0.046875 "/></g></g></g><g fill="#a37b40" fill-opacity="1"><g transform="translate(212.724393, 280.142235)"><g><path d="M 3.21875 -0.75 C 2.789062 -0.613281 2.367188 -0.539062 1.953125 -0.53125 C 1.546875 -0.53125 1.15625 -0.59375 0.78125 -0.71875 C 0.707031 -0.738281 0.632812 -0.765625 0.5625 -0.796875 C 0.5 -0.835938 0.441406 -0.890625 0.390625 -0.953125 C 0.242188 -1.179688 0.101562 -1.46875 -0.03125 -1.8125 C -0.164062 -2.164062 -0.28125 -2.507812 -0.375 -2.84375 C -0.394531 -2.914062 -0.382812 -2.972656 -0.34375 -3.015625 C -0.3125 -3.066406 -0.253906 -3.101562 -0.171875 -3.125 C -0.0859375 -3.144531 -0.0195312 -3.148438 0.03125 -3.140625 C 0.0820312 -3.128906 0.128906 -3.09375 0.171875 -3.03125 C 0.617188 -2.351562 1.109375 -1.875 1.640625 -1.59375 C 2.171875 -1.3125 2.691406 -1.25 3.203125 -1.40625 C 3.535156 -1.507812 3.789062 -1.664062 3.96875 -1.875 C 4.15625 -2.09375 4.269531 -2.335938 4.3125 -2.609375 C 4.363281 -2.878906 4.347656 -3.148438 4.265625 -3.421875 C 4.160156 -3.765625 4.007812 -4.03125 3.8125 -4.21875 C 3.625 -4.40625 3.378906 -4.550781 3.078125 -4.65625 C 2.773438 -4.757812 2.410156 -4.859375 1.984375 -4.953125 C 1.492188 -5.054688 1.019531 -5.179688 0.5625 -5.328125 C 0.101562 -5.472656 -0.300781 -5.6875 -0.65625 -5.96875 C -1.007812 -6.257812 -1.265625 -6.671875 -1.421875 -7.203125 C -1.585938 -7.753906 -1.59375 -8.28125 -1.4375 -8.78125 C -1.289062 -9.28125 -1 -9.722656 -0.5625 -10.109375 C -0.132812 -10.492188 0.40625 -10.789062 1.0625 -11 C 1.425781 -11.101562 1.773438 -11.164062 2.109375 -11.1875 C 2.441406 -11.207031 2.710938 -11.207031 2.921875 -11.1875 C 3.046875 -11.175781 3.140625 -11.144531 3.203125 -11.09375 C 3.273438 -11.050781 3.347656 -10.972656 3.421875 -10.859375 C 3.546875 -10.679688 3.671875 -10.453125 3.796875 -10.171875 C 3.929688 -9.898438 4.046875 -9.613281 4.140625 -9.3125 C 4.171875 -9.1875 4.097656 -9.09375 3.921875 -9.03125 C 3.847656 -9.007812 3.765625 -9.007812 3.671875 -9.03125 C 3.585938 -9.050781 3.523438 -9.085938 3.484375 -9.140625 C 3.128906 -9.660156 2.753906 -10.019531 2.359375 -10.21875 C 1.960938 -10.414062 1.539062 -10.445312 1.09375 -10.3125 C 0.78125 -10.207031 0.53125 -10.070312 0.34375 -9.90625 C 0.164062 -9.738281 0.046875 -9.53125 -0.015625 -9.28125 C -0.0859375 -9.03125 -0.0703125 -8.742188 0.03125 -8.421875 C 0.101562 -8.160156 0.257812 -7.953125 0.5 -7.796875 C 0.75 -7.640625 1.054688 -7.5 1.421875 -7.375 C 1.796875 -7.257812 2.207031 -7.140625 2.65625 -7.015625 C 3.207031 -6.878906 3.6875 -6.71875 4.09375 -6.53125 C 4.5 -6.351562 4.835938 -6.117188 5.109375 -5.828125 C 5.390625 -5.546875 5.597656 -5.175781 5.734375 -4.71875 C 5.929688 -4.070312 5.953125 -3.488281 5.796875 -2.96875 C 5.640625 -2.445312 5.335938 -1.992188 4.890625 -1.609375 C 4.453125 -1.234375 3.894531 -0.945312 3.21875 -0.75 Z M 3.21875 -0.75 "/></g></g></g></svg>